<svg xmlns="http://www.w3.org/2000/svg" width="600" height="180" font-family="monospace" font-size="16">
  <!-- Background -->
  <rect width="100%" height="100%" fill="black" />

  <!-- Borders for the table -->
  <rect x="10" y="20" width="580" height="40" stroke="white" fill="none"/>
  <rect x="10" y="60" width="580" height="40" stroke="white" fill="none"/>
  <rect x="10" y="100" width="580" height="40" stroke="white" fill="none"/>
  <rect x="10" y="140" width="580" height="40" stroke="white" fill="none"/>

  <!-- Column dividers -->
  <line x1="160" y1="20" x2="160" y2="180" stroke="white" />
  <line x1="220" y1="20" x2="220" y2="180" stroke="white" />
  <line x1="300" y1="20" x2="300" y2="180" stroke="white" />
  <line x1="440" y1="20" x2="440" y2="180" stroke="white" />

  <!-- Table Headers -->
  <text x="30" y="50" fill="white">DST IPADDR</text>
  <text x="170" y="50" fill="white">MASK</text>
  <text x="230" y="50" fill="white">DIRECT</text>
  <text x="310" y="50" fill="white">GATEWAY IPADDR</text>
  <text x="450" y="50" fill="white">OUTGOING INTF</text>

  <!-- First row -->
  <text x="30" y="90" fill="white">122.1.1.2</text>
  <text x="170" y="90" fill="white">32</text>
  <text x="230" y="90" fill="white">true</text>
  <text x="310" y="90" fill="white">NA</text>
  <text x="450" y="90" fill="white">NA</text>

  <!-- Second row -->
  <text x="30" y="130" fill="white">122.1.1.3</text>
  <text x="170" y="130" fill="white">32</text>
  <text x="230" y="130" fill="white">false</text>
  <text x="310" y="130" fill="white">11.1.1.1</text>
  <text x="450" y="130" fill="white">eth0/3</text>

  <!-- Third row -->
  <text x="30" y="170" fill="white">11.1.1.2</text>
  <text x="170" y="170" fill="white">24</text>
  <text x="230" y="170" fill="white">true</text>
  <text x="310" y="170" fill="white">NA</text>
  <text x="450" y="170" fill="white">NA</text>

  <!-- Fourth row -->
  <text x="30" y="210" fill="white">10.1.1.2</text>
  <text x="170" y="210" fill="white">24</text>
  <text x="230" y="210" fill="white">true</text>
  <text x="310" y="210" fill="white">NA</text>
  <text x="450" y="210" fill="white">NA</text>
</svg>
