<svg width="700" height="200" xmlns="http://www.w3.org/2000/svg" font-size="16" font-family="monospace">
 <!-- Background -->

 <!-- Borders for the table -->
 <!-- Column dividers -->
 <!-- Table Headers -->
 <!-- First row -->
 <!-- Second row -->
 <!-- Third row -->
 <!-- Fourth row -->
 <g>
  <title>Layer 1</title>
  <rect x="0" y="8" stroke="null" id="svg_1" fill="black" height="192" width="589.99999"/>
  <rect stroke="white" id="svg_2" fill="none" height="40" width="571.99999" y="20" x="9"/>
  <rect stroke="white" id="svg_3" fill="none" height="40" width="571" y="61" x="9"/>
  <rect stroke="white" id="svg_4" fill="none" height="40" width="570.00002" y="100" x="10"/>
  <rect stroke="white" id="svg_5" fill="none" height="40" width="570.00002" y="140" x="10"/>
  <line id="svg_6" stroke="white" y2="180" x2="150" y1="20" x1="150"/>
  <line id="svg_7" stroke="white" y2="180" x2="210" y1="20" x1="210"/>
  <line id="svg_8" stroke="white" y2="179" x2="292" y1="19" x1="292"/>
  <line id="svg_9" stroke="white" y2="180" x2="439" y1="20" x1="439"/>
  <line id="svg_10" stroke="white" y2="180" x2="580" y1="20" x1="580"/>
  <text id="svg_11" fill="white" y="50" x="30">DST IPADDR</text>
  <text id="svg_12" fill="white" y="50" x="160">MASK</text>
  <text id="svg_13" fill="white" y="50" x="230">DIRECT</text>
  <text id="svg_14" fill="white" y="50" x="300">GATEWAY IPADDR</text>
  <text id="svg_15" fill="white" y="49" x="447">OUTGOING INTF</text>
  <text id="svg_16" fill="white" y="90" x="30">122.1.1.2</text>
  <text id="svg_17" fill="white" y="90" x="160">32</text>
  <text id="svg_18" fill="white" y="90" x="230">true</text>
  <text id="svg_19" fill="white" y="90" x="300">NA</text>
  <text style="cursor: move;" id="svg_20" fill="white" y="89" x="453">NA</text>
  <text id="svg_21" fill="white" y="130" x="30">122.1.1.3</text>
  <text id="svg_22" fill="white" y="130" x="160">32</text>
  <text id="svg_23" fill="white" y="130" x="230">false</text>
  <text id="svg_24" fill="white" y="130" x="300">11.1.1.1</text>
  <text style="cursor: move;" id="svg_25" fill="white" y="127" x="451">eth0/3</text>
  <text id="svg_26" fill="white" y="170" x="30">11.1.1.2</text>
  <text id="svg_27" fill="white" y="170" x="160">24</text>
  <text id="svg_28" fill="white" y="170" x="230">true</text>
  <text id="svg_29" fill="white" y="170" x="300">NA</text>
  <text style="cursor: move;" id="svg_30" fill="white" y="164" x="456">NA</text>
  <text id="svg_31" fill="white" y="210" x="30">10.1.1.2</text>
  <text id="svg_32" fill="white" y="210" x="160">24</text>
  <text id="svg_33" fill="white" y="210" x="230">true</text>
  <text id="svg_34" fill="white" y="210" x="300">NA</text>
  <text id="svg_35" fill="white" y="210" x="440">NA</text>
 </g>
</svg>